<svg width="4096" height="1024" viewBox="0 0 4096 1024" fill="none" xmlns="http://www.w3.org/2000/svg">
<path fill-rule="evenodd" clip-rule="evenodd" d="M357.199 134C360.286 176.217 399.311 209.6 447 209.6C494.689 209.6 533.714 176.217 536.801 134H690C719.823 134 744 158.177 744 188V346.168C724.364 351.973 709.8 373.244 709.8 398.6C709.8 423.955 724.364 445.225 744 451.03V836C744 865.823 719.823 890 690 890H536.801C533.714 847.783 494.689 814.4 447 814.4C399.311 814.4 360.286 847.783 357.199 890H204C174.177 890 150 865.823 150 836V451.03C169.636 445.225 184.2 423.955 184.2 398.6C184.2 373.244 169.636 351.973 150 346.168V188C150 158.177 174.177 134 204 134H357.199ZM249 224C234.088 224 222 236.088 222 251V773C222 787.912 234.088 800 249 800H319.2C334.112 800 346.2 787.912 346.2 773V566H549.6V773C549.6 787.912 561.688 800 576.6 800H646.8C661.712 800 673.8 787.912 673.8 773V251C673.8 236.088 661.712 224 646.8 224H576.6C561.688 224 549.6 236.088 549.6 251V458H346.2V251C346.2 236.088 334.112 224 319.2 224H249Z" fill="black"/>
<path d="M874 715.49V228.35H982.33V715.49H874ZM1175.53 715.49V228.35H1284.55V715.49H1175.53ZM938.86 511.94V418.1H1211.41V511.94H938.86Z" fill="black"/>
<path d="M1501.53 722.39C1470.71 722.39 1443.11 714.8 1418.73 699.62C1394.81 684.44 1375.72 663.74 1361.46 637.52C1347.66 611.3 1340.76 581.4 1340.76 547.82C1340.76 514.24 1347.66 484.34 1361.46 458.12C1375.72 431.9 1394.81 411.2 1418.73 396.02C1443.11 380.84 1470.71 373.25 1501.53 373.25C1524.07 373.25 1544.31 377.62 1562.25 386.36C1580.65 395.1 1595.6 407.29 1607.1 422.93C1618.6 438.11 1625.04 455.59 1626.42 475.37V620.27C1625.04 640.05 1618.6 657.76 1607.1 673.4C1596.06 688.58 1581.34 700.54 1562.94 709.28C1544.54 718.02 1524.07 722.39 1501.53 722.39ZM1522.92 627.17C1545.46 627.17 1563.63 619.81 1577.43 605.09C1591.23 589.91 1598.13 570.82 1598.13 547.82C1598.13 532.18 1594.91 518.38 1588.47 506.42C1582.49 494.46 1573.75 485.26 1562.25 478.82C1551.21 471.92 1538.33 468.47 1523.61 468.47C1508.89 468.47 1495.78 471.92 1484.28 478.82C1473.24 485.26 1464.27 494.46 1457.37 506.42C1450.93 518.38 1447.71 532.18 1447.71 547.82C1447.71 563 1450.93 576.57 1457.37 588.53C1463.81 600.49 1472.78 609.92 1484.28 616.82C1495.78 623.72 1508.66 627.17 1522.92 627.17ZM1593.99 715.49V625.1L1609.86 543.68L1593.99 462.26V380.15H1697.49V715.49H1593.99Z" fill="black"/>
<path d="M1958.12 722.39C1935.58 722.39 1914.88 718.02 1896.02 709.28C1877.16 700.54 1861.75 688.58 1849.79 673.4C1837.83 657.76 1830.93 640.05 1829.09 620.27V478.82C1830.93 459.04 1837.83 441.1 1849.79 425C1861.75 408.9 1877.16 396.25 1896.02 387.05C1914.88 377.85 1935.58 373.25 1958.12 373.25C1989.86 373.25 2017.92 380.84 2042.3 396.02C2067.14 411.2 2086.46 431.9 2100.26 458.12C2114.52 484.34 2121.65 514.24 2121.65 547.82C2121.65 581.4 2114.52 611.3 2100.26 637.52C2086.46 663.74 2067.14 684.44 2042.3 699.62C2017.92 714.8 1989.86 722.39 1958.12 722.39ZM1764.92 856.94V380.15H1870.49V466.4L1853.24 547.82L1869.11 629.24V856.94H1764.92ZM1938.8 627.17C1953.98 627.17 1967.09 623.72 1978.13 616.82C1989.63 609.92 1998.6 600.49 2005.04 588.53C2011.48 576.57 2014.7 563 2014.7 547.82C2014.7 532.18 2011.48 518.38 2005.04 506.42C1998.6 494.46 1989.63 485.26 1978.13 478.82C1967.09 471.92 1954.21 468.47 1939.49 468.47C1924.77 468.47 1911.66 471.92 1900.16 478.82C1889.12 485.26 1880.38 494.46 1873.94 506.42C1867.5 518.38 1864.28 532.18 1864.28 547.82C1864.28 563 1867.27 576.57 1873.25 588.53C1879.69 600.49 1888.66 609.92 1900.16 616.82C1911.66 623.72 1924.54 627.17 1938.8 627.17Z" fill="black"/>
<path d="M2361.59 722.39C2339.05 722.39 2318.35 718.02 2299.49 709.28C2280.63 700.54 2265.22 688.58 2253.26 673.4C2241.3 657.76 2234.4 640.05 2232.56 620.27V478.82C2234.4 459.04 2241.3 441.1 2253.26 425C2265.22 408.9 2280.63 396.25 2299.49 387.05C2318.35 377.85 2339.05 373.25 2361.59 373.25C2393.33 373.25 2421.39 380.84 2445.77 396.02C2470.61 411.2 2489.93 431.9 2503.73 458.12C2517.99 484.34 2525.12 514.24 2525.12 547.82C2525.12 581.4 2517.99 611.3 2503.73 637.52C2489.93 663.74 2470.61 684.44 2445.77 699.62C2421.39 714.8 2393.33 722.39 2361.59 722.39ZM2168.39 856.94V380.15H2273.96V466.4L2256.71 547.82L2272.58 629.24V856.94H2168.39ZM2342.27 627.17C2357.45 627.17 2370.56 623.72 2381.6 616.82C2393.1 609.92 2402.07 600.49 2408.51 588.53C2414.95 576.57 2418.17 563 2418.17 547.82C2418.17 532.18 2414.95 518.38 2408.51 506.42C2402.07 494.46 2393.1 485.26 2381.6 478.82C2370.56 471.92 2357.68 468.47 2342.96 468.47C2328.24 468.47 2315.13 471.92 2303.63 478.82C2292.59 485.26 2283.85 494.46 2277.41 506.42C2270.97 518.38 2267.75 532.18 2267.75 547.82C2267.75 563 2270.74 576.57 2276.72 588.53C2283.16 600.49 2292.13 609.92 2303.63 616.82C2315.13 623.72 2328.01 627.17 2342.27 627.17Z" fill="black"/>
<path d="M2737.45 723.08C2701.11 723.08 2668.68 715.72 2640.16 701C2612.1 685.82 2590.02 664.89 2573.92 638.21C2557.82 611.53 2549.77 581.4 2549.77 547.82C2549.77 514.24 2557.59 484.34 2573.23 458.12C2589.33 431.44 2610.95 410.51 2638.09 395.33C2665.23 380.15 2695.82 372.56 2729.86 372.56C2762.98 372.56 2792.19 379.69 2817.49 393.95C2842.79 408.21 2862.57 427.99 2876.83 453.29C2891.55 478.59 2898.91 507.57 2898.91 540.23C2898.91 546.21 2898.45 552.65 2897.53 559.55C2897.07 565.99 2895.92 573.58 2894.08 582.32L2604.97 583.01V510.56L2849.23 509.87L2803.69 540.23C2803.23 520.91 2800.24 505.04 2794.72 492.62C2789.2 479.74 2780.92 470.08 2769.88 463.64C2759.3 456.74 2746.19 453.29 2730.55 453.29C2713.99 453.29 2699.5 457.2 2687.08 465.02C2675.12 472.38 2665.69 482.96 2658.79 496.76C2652.35 510.56 2649.13 527.35 2649.13 547.13C2649.13 566.91 2652.58 583.93 2659.48 598.19C2666.84 611.99 2676.96 622.8 2689.84 630.62C2703.18 637.98 2718.82 641.66 2736.76 641.66C2753.32 641.66 2768.27 638.9 2781.61 633.38C2794.95 627.4 2806.68 618.66 2816.8 607.16L2874.76 665.12C2858.2 684.44 2838.19 698.93 2814.73 708.59C2791.27 718.25 2765.51 723.08 2737.45 723.08Z" fill="black"/>
<path d="M3164.46 715.49V524.36C3164.46 506.88 3158.94 492.85 3147.9 482.27C3137.32 471.23 3123.75 465.71 3107.19 465.71C3095.69 465.71 3085.56 468.24 3076.82 473.3C3068.08 477.9 3061.19 484.8 3056.12 494C3051.07 502.74 3048.53 512.86 3048.53 524.36L3007.82 504.35C3007.82 478.13 3013.57 455.13 3025.07 435.35C3036.57 415.57 3052.45 400.39 3072.69 389.81C3093.39 378.77 3116.61 373.25 3142.38 373.25C3167.21 373.25 3189.07 379.23 3207.93 391.19C3227.25 402.69 3242.43 418.1 3253.47 437.42C3264.51 456.74 3270.02 477.9 3270.02 500.9V715.49H3164.46ZM2942.97 715.49V380.15H3048.53V715.49H2942.97Z" fill="black"/>
<path d="M3330.93 715.49V380.15H3436.5V715.49H3330.93ZM3384.06 333.92C3367.5 333.92 3353.7 328.4 3342.66 317.36C3332.08 305.86 3326.79 292.06 3326.79 275.96C3326.79 259.4 3332.08 245.6 3342.66 234.56C3353.7 223.52 3367.5 218 3384.06 218C3400.62 218 3414.19 223.52 3424.77 234.56C3435.35 245.6 3440.64 259.4 3440.64 275.96C3440.64 292.06 3435.35 305.86 3424.77 317.36C3414.19 328.4 3400.62 333.92 3384.06 333.92Z" fill="black"/>
<path d="M3725.43 715.49V524.36C3725.43 506.88 3719.91 492.85 3708.87 482.27C3698.29 471.23 3684.72 465.71 3668.16 465.71C3656.66 465.71 3646.54 468.24 3637.8 473.3C3629.06 477.9 3622.16 484.8 3617.1 494C3612.04 502.74 3609.51 512.86 3609.51 524.36L3568.8 504.35C3568.8 478.13 3574.55 455.13 3586.05 435.35C3597.55 415.57 3613.42 400.39 3633.66 389.81C3654.36 378.77 3677.59 373.25 3703.35 373.25C3728.19 373.25 3750.04 379.23 3768.9 391.19C3788.22 402.69 3803.4 418.1 3814.44 437.42C3825.48 456.74 3831 477.9 3831 500.9V715.49H3725.43ZM3503.94 715.49V380.15H3609.51V715.49H3503.94Z" fill="black"/>
</svg>
