<svg width="3443" height="648" viewBox="0 0 3443 648" fill="none" xmlns="http://www.w3.org/2000/svg">
<path d="M486 506.49V19.35H594.33V506.49H486ZM787.53 506.49V19.35H896.55V506.49H787.53ZM550.86 302.94V209.1H823.41V302.94H550.86Z" fill="black"/>
<path d="M1113.53 513.39C1082.71 513.39 1055.11 505.8 1030.73 490.62C1006.81 475.44 987.723 454.74 973.463 428.52C959.663 402.3 952.763 372.4 952.763 338.82C952.763 305.24 959.663 275.34 973.463 249.12C987.723 222.9 1006.81 202.2 1030.73 187.02C1055.11 171.84 1082.71 164.25 1113.53 164.25C1136.07 164.25 1156.31 168.62 1174.25 177.36C1192.65 186.1 1207.6 198.29 1219.1 213.93C1230.6 229.11 1237.04 246.59 1238.42 266.37V411.27C1237.04 431.05 1230.6 448.76 1219.1 464.4C1208.06 479.58 1193.34 491.54 1174.94 500.28C1156.54 509.02 1136.07 513.39 1113.53 513.39ZM1134.92 418.17C1157.46 418.17 1175.63 410.81 1189.43 396.09C1203.23 380.91 1210.13 361.82 1210.13 338.82C1210.13 323.18 1206.91 309.38 1200.47 297.42C1194.49 285.46 1185.75 276.26 1174.25 269.82C1163.21 262.92 1150.33 259.47 1135.61 259.47C1120.89 259.47 1107.78 262.92 1096.28 269.82C1085.24 276.26 1076.27 285.46 1069.37 297.42C1062.93 309.38 1059.71 323.18 1059.71 338.82C1059.71 354 1062.93 367.57 1069.37 379.53C1075.81 391.49 1084.78 400.92 1096.28 407.82C1107.78 414.72 1120.66 418.17 1134.92 418.17ZM1205.99 506.49V416.1L1221.86 334.68L1205.99 253.26V171.15H1309.49V506.49H1205.99Z" fill="black"/>
<path d="M1570.12 513.39C1547.58 513.39 1526.88 509.02 1508.02 500.28C1489.16 491.54 1473.75 479.58 1461.79 464.4C1449.83 448.76 1442.93 431.05 1441.09 411.27V269.82C1442.93 250.04 1449.83 232.1 1461.79 216C1473.75 199.9 1489.16 187.25 1508.02 178.05C1526.88 168.85 1547.58 164.25 1570.12 164.25C1601.86 164.25 1629.92 171.84 1654.3 187.02C1679.14 202.2 1698.46 222.9 1712.26 249.12C1726.52 275.34 1733.65 305.24 1733.65 338.82C1733.65 372.4 1726.52 402.3 1712.26 428.52C1698.46 454.74 1679.14 475.44 1654.3 490.62C1629.92 505.8 1601.86 513.39 1570.12 513.39ZM1376.92 647.94V171.15H1482.49V257.4L1465.24 338.82L1481.11 420.24V647.94H1376.92ZM1550.8 418.17C1565.98 418.17 1579.09 414.72 1590.13 407.82C1601.63 400.92 1610.6 391.49 1617.04 379.53C1623.48 367.57 1626.7 354 1626.7 338.82C1626.7 323.18 1623.48 309.38 1617.04 297.42C1610.6 285.46 1601.63 276.26 1590.13 269.82C1579.09 262.92 1566.21 259.47 1551.49 259.47C1536.77 259.47 1523.66 262.92 1512.16 269.82C1501.12 276.26 1492.38 285.46 1485.94 297.42C1479.5 309.38 1476.28 323.18 1476.28 338.82C1476.28 354 1479.27 367.57 1485.25 379.53C1491.69 391.49 1500.66 400.92 1512.16 407.82C1523.66 414.72 1536.54 418.17 1550.8 418.17Z" fill="black"/>
<path d="M1973.59 513.39C1951.05 513.39 1930.35 509.02 1911.49 500.28C1892.63 491.54 1877.22 479.58 1865.26 464.4C1853.3 448.76 1846.4 431.05 1844.56 411.27V269.82C1846.4 250.04 1853.3 232.1 1865.26 216C1877.22 199.9 1892.63 187.25 1911.49 178.05C1930.35 168.85 1951.05 164.25 1973.59 164.25C2005.33 164.25 2033.39 171.84 2057.77 187.02C2082.61 202.2 2101.93 222.9 2115.73 249.12C2129.99 275.34 2137.12 305.24 2137.12 338.82C2137.12 372.4 2129.99 402.3 2115.73 428.52C2101.93 454.74 2082.61 475.44 2057.77 490.62C2033.39 505.8 2005.33 513.39 1973.59 513.39ZM1780.39 647.94V171.15H1885.96V257.4L1868.71 338.82L1884.58 420.24V647.94H1780.39ZM1954.27 418.17C1969.45 418.17 1982.56 414.72 1993.6 407.82C2005.1 400.92 2014.07 391.49 2020.51 379.53C2026.95 367.57 2030.17 354 2030.17 338.82C2030.17 323.18 2026.95 309.38 2020.51 297.42C2014.07 285.46 2005.1 276.26 1993.6 269.82C1982.56 262.92 1969.68 259.47 1954.96 259.47C1940.24 259.47 1927.13 262.92 1915.63 269.82C1904.59 276.26 1895.85 285.46 1889.41 297.42C1882.97 309.38 1879.75 323.18 1879.75 338.82C1879.75 354 1882.74 367.57 1888.72 379.53C1895.16 391.49 1904.13 400.92 1915.63 407.82C1927.13 414.72 1940.01 418.17 1954.27 418.17Z" fill="black"/>
<path d="M2349.45 514.08C2313.11 514.08 2280.68 506.72 2252.16 492C2224.1 476.82 2202.02 455.89 2185.92 429.21C2169.82 402.53 2161.77 372.4 2161.77 338.82C2161.77 305.24 2169.59 275.34 2185.23 249.12C2201.33 222.44 2222.95 201.51 2250.09 186.33C2277.23 171.15 2307.82 163.56 2341.86 163.56C2374.98 163.56 2404.19 170.69 2429.49 184.95C2454.79 199.21 2474.57 218.99 2488.83 244.29C2503.55 269.59 2510.91 298.57 2510.91 331.23C2510.91 337.21 2510.45 343.65 2509.53 350.55C2509.07 356.99 2507.92 364.58 2506.08 373.32L2216.97 374.01V301.56L2461.23 300.87L2415.69 331.23C2415.23 311.91 2412.24 296.04 2406.72 283.62C2401.2 270.74 2392.92 261.08 2381.88 254.64C2371.3 247.74 2358.19 244.29 2342.55 244.29C2325.99 244.29 2311.5 248.2 2299.08 256.02C2287.12 263.38 2277.69 273.96 2270.79 287.76C2264.35 301.56 2261.13 318.35 2261.13 338.13C2261.13 357.91 2264.58 374.93 2271.48 389.19C2278.84 402.99 2288.96 413.8 2301.84 421.62C2315.18 428.98 2330.82 432.66 2348.76 432.66C2365.32 432.66 2380.27 429.9 2393.61 424.38C2406.95 418.4 2418.68 409.66 2428.8 398.16L2486.76 456.12C2470.2 475.44 2450.19 489.93 2426.73 499.59C2403.27 509.25 2377.51 514.08 2349.45 514.08Z" fill="black"/>
<path d="M2776.46 506.49V315.36C2776.46 297.88 2770.94 283.85 2759.9 273.27C2749.32 262.23 2735.75 256.71 2719.19 256.71C2707.69 256.71 2697.56 259.24 2688.82 264.3C2680.08 268.9 2673.19 275.8 2668.12 285C2663.07 293.74 2660.53 303.86 2660.53 315.36L2619.82 295.35C2619.82 269.13 2625.57 246.13 2637.07 226.35C2648.57 206.57 2664.45 191.39 2684.69 180.81C2705.39 169.77 2728.61 164.25 2754.38 164.25C2779.21 164.25 2801.07 170.23 2819.93 182.19C2839.25 193.69 2854.43 209.1 2865.47 228.42C2876.51 247.74 2882.02 268.9 2882.02 291.9V506.49H2776.46ZM2554.97 506.49V171.15H2660.53V506.49H2554.97Z" fill="black"/>
<path d="M2942.93 506.49V171.15H3048.5V506.49H2942.93ZM2996.06 124.92C2979.5 124.92 2965.7 119.4 2954.66 108.36C2944.08 96.86 2938.79 83.06 2938.79 66.96C2938.79 50.4 2944.08 36.6 2954.66 25.56C2965.7 14.52 2979.5 9 2996.06 9C3012.62 9 3026.19 14.52 3036.77 25.56C3047.35 36.6 3052.64 50.4 3052.64 66.96C3052.64 83.06 3047.35 96.86 3036.77 108.36C3026.19 119.4 3012.62 124.92 2996.06 124.92Z" fill="black"/>
<path d="M3337.43 506.49V315.36C3337.43 297.88 3331.91 283.85 3320.87 273.27C3310.29 262.23 3296.72 256.71 3280.16 256.71C3268.66 256.71 3258.54 259.24 3249.8 264.3C3241.06 268.9 3234.16 275.8 3229.1 285C3224.04 293.74 3221.51 303.86 3221.51 315.36L3180.8 295.35C3180.8 269.13 3186.55 246.13 3198.05 226.35C3209.55 206.57 3225.42 191.39 3245.66 180.81C3266.36 169.77 3289.59 164.25 3315.35 164.25C3340.19 164.25 3362.04 170.23 3380.9 182.19C3400.22 193.69 3415.4 209.1 3426.44 228.42C3437.48 247.74 3443 268.9 3443 291.9V506.49H3337.43ZM3115.94 506.49V171.15H3221.51V506.49H3115.94Z" fill="black"/>
<path fill-rule="evenodd" clip-rule="evenodd" d="M110.601 0C114.527 26.524 137.389 46.8776 165.004 46.8776C192.62 46.8774 215.481 26.5239 219.408 0H268.125C302.297 0 330 27.7025 330 61.875V466.125C330 500.298 302.298 528 268.125 528H219.467C215.714 501.278 192.761 480.717 165.004 480.717C137.248 480.717 114.294 501.278 110.542 528H61.8743C27.7018 528 0 500.297 0 466.125V61.875C0.000167808 27.7027 27.7019 0.000215794 61.8743 0H110.601ZM77.1216 157.443V367.125H123.75V279.51H206.91V367.125H253.836V157.443H206.91V239.118H123.75V157.443H77.1216Z" fill="black"/>
</svg>
