<svg width="2957" height="639" viewBox="0 0 2957 639" fill="none" xmlns="http://www.w3.org/2000/svg">
<path d="M0 497.49V10.35H108.33V497.49H0ZM301.53 497.49V10.35H410.55V497.49H301.53ZM64.86 293.94V200.1H337.41V293.94H64.86Z" fill="white"/>
<path d="M627.533 504.39C596.713 504.39 569.113 496.8 544.733 481.62C520.813 466.44 501.723 445.74 487.463 419.52C473.663 393.3 466.763 363.4 466.763 329.82C466.763 296.24 473.663 266.34 487.463 240.12C501.723 213.9 520.813 193.2 544.733 178.02C569.113 162.84 596.713 155.25 627.533 155.25C650.073 155.25 670.313 159.62 688.253 168.36C706.653 177.1 721.603 189.29 733.103 204.93C744.603 220.11 751.043 237.59 752.423 257.37V402.27C751.043 422.05 744.603 439.76 733.103 455.4C722.063 470.58 707.343 482.54 688.943 491.28C670.543 500.02 650.073 504.39 627.533 504.39ZM648.923 409.17C671.463 409.17 689.633 401.81 703.433 387.09C717.233 371.91 724.133 352.82 724.133 329.82C724.133 314.18 720.913 300.38 714.473 288.42C708.493 276.46 699.753 267.26 688.253 260.82C677.213 253.92 664.333 250.47 649.613 250.47C634.893 250.47 621.783 253.92 610.283 260.82C599.243 267.26 590.273 276.46 583.373 288.42C576.933 300.38 573.713 314.18 573.713 329.82C573.713 345 576.933 358.57 583.373 370.53C589.813 382.49 598.783 391.92 610.283 398.82C621.783 405.72 634.663 409.17 648.923 409.17ZM719.993 497.49V407.1L735.863 325.68L719.993 244.26V162.15H823.493V497.49H719.993Z" fill="white"/>
<path d="M1084.12 504.39C1061.58 504.39 1040.88 500.02 1022.02 491.28C1003.16 482.54 987.755 470.58 975.795 455.4C963.835 439.76 956.935 422.05 955.095 402.27V260.82C956.935 241.04 963.835 223.1 975.795 207C987.755 190.9 1003.16 178.25 1022.02 169.05C1040.88 159.85 1061.58 155.25 1084.12 155.25C1115.86 155.25 1143.92 162.84 1168.3 178.02C1193.14 193.2 1212.46 213.9 1226.26 240.12C1240.52 266.34 1247.65 296.24 1247.65 329.82C1247.65 363.4 1240.52 393.3 1226.26 419.52C1212.46 445.74 1193.14 466.44 1168.3 481.62C1143.92 496.8 1115.86 504.39 1084.12 504.39ZM890.925 638.94V162.15H996.495V248.4L979.245 329.82L995.115 411.24V638.94H890.925ZM1064.8 409.17C1079.98 409.17 1093.09 405.72 1104.13 398.82C1115.63 391.92 1124.6 382.49 1131.04 370.53C1137.48 358.57 1140.7 345 1140.7 329.82C1140.7 314.18 1137.48 300.38 1131.04 288.42C1124.6 276.46 1115.63 267.26 1104.13 260.82C1093.09 253.92 1080.21 250.47 1065.49 250.47C1050.77 250.47 1037.66 253.92 1026.16 260.82C1015.12 267.26 1006.38 276.46 999.945 288.42C993.505 300.38 990.285 314.18 990.285 329.82C990.285 345 993.275 358.57 999.255 370.53C1005.69 382.49 1014.66 391.92 1026.16 398.82C1037.66 405.72 1050.54 409.17 1064.8 409.17Z" fill="white"/>
<path d="M1487.59 504.39C1465.05 504.39 1444.35 500.02 1425.49 491.28C1406.63 482.54 1391.22 470.58 1379.26 455.4C1367.3 439.76 1360.4 422.05 1358.56 402.27V260.82C1360.4 241.04 1367.3 223.1 1379.26 207C1391.22 190.9 1406.63 178.25 1425.49 169.05C1444.35 159.85 1465.05 155.25 1487.59 155.25C1519.33 155.25 1547.39 162.84 1571.77 178.02C1596.61 193.2 1615.93 213.9 1629.73 240.12C1643.99 266.34 1651.12 296.24 1651.12 329.82C1651.12 363.4 1643.99 393.3 1629.73 419.52C1615.93 445.74 1596.61 466.44 1571.77 481.62C1547.39 496.8 1519.33 504.39 1487.59 504.39ZM1294.39 638.94V162.15H1399.96V248.4L1382.71 329.82L1398.58 411.24V638.94H1294.39ZM1468.27 409.17C1483.45 409.17 1496.56 405.72 1507.6 398.82C1519.1 391.92 1528.07 382.49 1534.51 370.53C1540.95 358.57 1544.17 345 1544.17 329.82C1544.17 314.18 1540.95 300.38 1534.51 288.42C1528.07 276.46 1519.1 267.26 1507.6 260.82C1496.56 253.92 1483.68 250.47 1468.96 250.47C1454.24 250.47 1441.13 253.92 1429.63 260.82C1418.59 267.26 1409.85 276.46 1403.41 288.42C1396.97 300.38 1393.75 314.18 1393.75 329.82C1393.75 345 1396.74 358.57 1402.72 370.53C1409.16 382.49 1418.13 391.92 1429.63 398.82C1441.13 405.72 1454.01 409.17 1468.27 409.17Z" fill="white"/>
<path d="M1863.45 505.08C1827.11 505.08 1794.68 497.72 1766.16 483C1738.1 467.82 1716.02 446.89 1699.92 420.21C1683.82 393.53 1675.77 363.4 1675.77 329.82C1675.77 296.24 1683.59 266.34 1699.23 240.12C1715.33 213.44 1736.95 192.51 1764.09 177.33C1791.23 162.15 1821.82 154.56 1855.86 154.56C1888.98 154.56 1918.19 161.69 1943.49 175.95C1968.79 190.21 1988.57 209.99 2002.83 235.29C2017.55 260.59 2024.91 289.57 2024.91 322.23C2024.91 328.21 2024.45 334.65 2023.53 341.55C2023.07 347.99 2021.92 355.58 2020.08 364.32L1730.97 365.01V292.56L1975.23 291.87L1929.69 322.23C1929.23 302.91 1926.24 287.04 1920.72 274.62C1915.2 261.74 1906.92 252.08 1895.88 245.64C1885.3 238.74 1872.19 235.29 1856.55 235.29C1839.99 235.29 1825.5 239.2 1813.08 247.02C1801.12 254.38 1791.69 264.96 1784.79 278.76C1778.35 292.56 1775.13 309.35 1775.13 329.13C1775.13 348.91 1778.58 365.93 1785.48 380.19C1792.84 393.99 1802.96 404.8 1815.84 412.62C1829.18 419.98 1844.82 423.66 1862.76 423.66C1879.32 423.66 1894.27 420.9 1907.61 415.38C1920.95 409.4 1932.68 400.66 1942.8 389.16L2000.76 447.12C1984.2 466.44 1964.19 480.93 1940.73 490.59C1917.27 500.25 1891.51 505.08 1863.45 505.08Z" fill="white"/>
<path d="M2290.46 497.49V306.36C2290.46 288.88 2284.94 274.85 2273.9 264.27C2263.32 253.23 2249.75 247.71 2233.19 247.71C2221.69 247.71 2211.56 250.24 2202.82 255.3C2194.08 259.9 2187.19 266.8 2182.12 276C2177.07 284.74 2174.53 294.86 2174.53 306.36L2133.82 286.35C2133.82 260.13 2139.57 237.13 2151.07 217.35C2162.57 197.57 2178.45 182.39 2198.69 171.81C2219.39 160.77 2242.61 155.25 2268.38 155.25C2293.21 155.25 2315.07 161.23 2333.93 173.19C2353.25 184.69 2368.43 200.1 2379.47 219.42C2390.51 238.74 2396.02 259.9 2396.02 282.9V497.49H2290.46ZM2068.97 497.49V162.15H2174.53V497.49H2068.97Z" fill="white"/>
<path d="M2456.93 497.49V162.15H2562.5V497.49H2456.93ZM2510.06 115.92C2493.5 115.92 2479.7 110.4 2468.66 99.36C2458.08 87.86 2452.79 74.06 2452.79 57.96C2452.79 41.4 2458.08 27.6 2468.66 16.56C2479.7 5.52 2493.5 0 2510.06 0C2526.62 0 2540.19 5.52 2550.77 16.56C2561.35 27.6 2566.64 41.4 2566.64 57.96C2566.64 74.06 2561.35 87.86 2550.77 99.36C2540.19 110.4 2526.62 115.92 2510.06 115.92Z" fill="white"/>
<path d="M2851.43 497.49V306.36C2851.43 288.88 2845.91 274.85 2834.87 264.27C2824.29 253.23 2810.72 247.71 2794.16 247.71C2782.66 247.71 2772.54 250.24 2763.8 255.3C2755.06 259.9 2748.16 266.8 2743.1 276C2738.04 284.74 2735.51 294.86 2735.51 306.36L2694.8 286.35C2694.8 260.13 2700.55 237.13 2712.05 217.35C2723.55 197.57 2739.42 182.39 2759.66 171.81C2780.36 160.77 2803.59 155.25 2829.35 155.25C2854.19 155.25 2876.04 161.23 2894.9 173.19C2914.22 184.69 2929.4 200.1 2940.44 219.42C2951.48 238.74 2957 259.9 2957 282.9V497.49H2851.43ZM2629.94 497.49V162.15H2735.51V497.49H2629.94Z" fill="white"/>
</svg>
