<svg width="1024" height="1024" viewBox="0 0 1024 1024" fill="none" xmlns="http://www.w3.org/2000/svg">
<path fill-rule="evenodd" clip-rule="evenodd" d="M422.199 134C425.286 176.217 464.311 209.6 512 209.6C559.689 209.6 598.714 176.217 601.801 134H755C784.823 134 809 158.177 809 188V346.168C789.364 351.973 774.8 373.244 774.8 398.6C774.8 423.955 789.364 445.225 809 451.03V836C809 865.823 784.823 890 755 890H601.801C598.714 847.783 559.689 814.4 512 814.4C464.311 814.4 425.286 847.783 422.199 890H269C239.177 890 215 865.823 215 836V451.03C234.636 445.225 249.2 423.955 249.2 398.6C249.2 373.244 234.636 351.973 215 346.168V188C215 158.177 239.177 134 269 134H422.199ZM314 224C299.088 224 287 236.088 287 251V773C287 787.912 299.088 800 314 800H384.2C399.112 800 411.2 787.912 411.2 773V566H614.6V773C614.6 787.912 626.688 800 641.6 800H711.8C726.712 800 738.8 787.912 738.8 773V251C738.8 236.088 726.712 224 711.8 224H641.6C626.688 224 614.6 236.088 614.6 251V458H411.2V251C411.2 236.088 399.112 224 384.2 224H314Z" fill="#6D28D9"/>
</svg>
