<svg width="1024" height="1024" viewBox="0 0 1024 1024" fill="none" xmlns="http://www.w3.org/2000/svg">
<rect width="1024" height="1024" fill="#6D28D9"/>
<path fill-rule="evenodd" clip-rule="evenodd" d="M457.601 248C461.527 274.524 484.389 294.878 512.004 294.878C539.62 294.877 562.481 274.524 566.408 248H615.125C649.297 248 677 275.703 677 309.875V714.125C677 748.298 649.298 776 615.125 776H566.467C562.714 749.278 539.761 728.717 512.004 728.717C484.248 728.717 461.294 749.278 457.542 776H408.874C374.702 776 347 748.297 347 714.125V309.875C347 275.703 374.702 248 408.874 248H457.601ZM424.122 405.443V615.125H470.75V527.51H553.91V615.125H600.836V405.443H553.91V487.118H470.75V405.443H424.122Z" fill="white"/>
</svg>
